--------------------------------24//2011--------------------------------------------

The Walking Dead 2×02 Bloodletting [Sub Español]
------------------------------------------------------------------------------------

Codec ID                                 : XVID
Codec ID/Hint                            : XviD
Duration                                 : 42mn 48s
Bit rate                                 : 430 Kbps
Width                                    : 624 pixels
Height                                   : 352 pixels
Display aspect ratio                     : 16:9
Frame rate                               : 23.976 fps
Color space                              : YUV
Chroma subsampling                       : 4:2:0
Bit depth                                : 8 bits
Scan type                                : Progressive
Compression mode                         : Lossy
Bits/(Pixel*Frame)                       : 0.082
Stream size                              : 132 MiB (73%)
Writing library                          : XviD 64

Audio
ID                                       : 1
Format                                   : MPEG Audio
Format version                           : Version 1
Format profile                           : Layer 3
Codec ID                                 : 55
Codec ID/Hint                            : MP3
Duration                                 : 42mn 48s
Bit rate mode                            : Variable
Bit rate                                 : 145 Kbps
Channel(s)                               : 2 channels
Sampling rate                            : 48.0 KHz
Compression mode                         : Lossy
Stream size                              : 44.5 MiB (25%)
Alignment                                : Aligned on interleaves
Interleave, duration                     : 24 ms (0.58 video frame)
Interleave, preload duration             : 375 ms